REM DIRINDEX 1\2,1\3,1\4,1\6,1\5\7,1\5\8
REM DIRNAME cjc114,folder01,folder02,folder03,folder04,folder05,folder06,folder07
TITLE ""
FILE "DB4500_5th_2A_28.mp3" MP3
  TRACK 01 AUDIO
    TITLE "0:"
    INDEX 01 00:00:00
  TRACK 02 AUDIO
    TITLE "2:cjc114_0857"
    INDEX 01 00:00:03
  TRACK 03 AUDIO
    TITLE "0:"
    INDEX 01 00:01:11
  TRACK 04 AUDIO
    TITLE "3:cjc114_0858"
    INDEX 01 00:01:40
  TRACK 05 AUDIO
    TITLE "0:"
    INDEX 01 00:02:43
  TRACK 06 AUDIO
    TITLE "4:cjc114_0859"
    INDEX 01 00:02:71
  TRACK 07 AUDIO
    TITLE "0:"
    INDEX 01 00:05:14
  TRACK 08 AUDIO
    TITLE "4:cjc114_0860"
    INDEX 01 00:05:46
  TRACK 09 AUDIO
    TITLE "0:"
    INDEX 01 00:07:56
  TRACK 10 AUDIO
    TITLE "2:cjc114_0861"
    INDEX 01 00:08:34
  TRACK 11 AUDIO
    TITLE "0:"
    INDEX 01 00:09:40
  TRACK 12 AUDIO
    TITLE "3:cjc114_0862"
    INDEX 01 00:09:69
  TRACK 13 AUDIO
    TITLE "0:"
    INDEX 01 00:11:13
  TRACK 14 AUDIO
    TITLE "4:cjc114_0863"
    INDEX 01 00:11:39
  TRACK 15 AUDIO
    TITLE "0:"
    INDEX 01 00:14:39
  TRACK 16 AUDIO
    TITLE "2:cjc114_0864"
    INDEX 01 00:15:17
  TRACK 17 AUDIO
    TITLE "0:"
    INDEX 01 00:16:24
  TRACK 18 AUDIO
    TITLE "3:cjc114_0865"
    INDEX 01 00:16:53
  TRACK 19 AUDIO
    TITLE "0:"
    INDEX 01 00:17:69
  TRACK 20 AUDIO
    TITLE "4:cjc114_0866"
    INDEX 01 00:18:21
  TRACK 21 AUDIO
    TITLE "0:"
    INDEX 01 00:21:49
  TRACK 22 AUDIO
    TITLE "2:cjc114_0867"
    INDEX 01 00:22:27
  TRACK 23 AUDIO
    TITLE "0:"
    INDEX 01 00:23:26
  TRACK 24 AUDIO
    TITLE "3:cjc114_0868"
    INDEX 01 00:23:53
  TRACK 25 AUDIO
    TITLE "0:"
    INDEX 01 00:24:71
  TRACK 26 AUDIO
    TITLE "4:cjc114_0869"
    INDEX 01 00:25:23
  TRACK 27 AUDIO
    TITLE "0:"
    INDEX 01 00:27:63
  TRACK 28 AUDIO
    TITLE "2:cjc114_0870"
    INDEX 01 00:28:41
  TRACK 29 AUDIO
    TITLE "0:"
    INDEX 01 00:29:56
  TRACK 30 AUDIO
    TITLE "3:cjc114_0871"
    INDEX 01 00:30:08
  TRACK 31 AUDIO
    TITLE "0:"
    INDEX 01 00:31:22
  TRACK 32 AUDIO
    TITLE "4:cjc114_0872"
    INDEX 01 00:31:49
  TRACK 33 AUDIO
    TITLE "0:"
    INDEX 01 00:34:42
  TRACK 34 AUDIO
    TITLE "2:cjc114_0873"
    INDEX 01 00:35:17
  TRACK 35 AUDIO
    TITLE "0:"
    INDEX 01 00:36:29
  TRACK 36 AUDIO
    TITLE "3:cjc114_0874"
    INDEX 01 00:36:52
  TRACK 37 AUDIO
    TITLE "0:"
    INDEX 01 00:38:02
  TRACK 38 AUDIO
    TITLE "4:cjc114_0875"
    INDEX 01 00:38:30
  TRACK 39 AUDIO
    TITLE "0:"
    INDEX 01 00:41:40
  TRACK 40 AUDIO
    TITLE "2:cjc114_0876"
    INDEX 01 00:42:19
  TRACK 41 AUDIO
    TITLE "0:"
    INDEX 01 00:43:25
  TRACK 42 AUDIO
    TITLE "3:cjc114_0877"
    INDEX 01 00:43:52
  TRACK 43 AUDIO
    TITLE "0:"
    INDEX 01 00:44:60
  TRACK 44 AUDIO
    TITLE "4:cjc114_0878"
    INDEX 01 00:45:06
  TRACK 45 AUDIO
    TITLE "0:"
    INDEX 01 00:47:64
  TRACK 46 AUDIO
    TITLE "2:cjc114_0879"
    INDEX 01 00:48:36
  TRACK 47 AUDIO
    TITLE "0:"
    INDEX 01 00:49:53
  TRACK 48 AUDIO
    TITLE "3:cjc114_0880"
    INDEX 01 00:50:01
  TRACK 49 AUDIO
    TITLE "0:"
    INDEX 01 00:51:09
  TRACK 50 AUDIO
    TITLE "4:cjc114_0881"
    INDEX 01 00:51:30
  TRACK 51 AUDIO
    TITLE "0:"
    INDEX 01 00:55:16
  TRACK 52 AUDIO
    TITLE "2:cjc114_0882"
    INDEX 01 00:55:71
  TRACK 53 AUDIO
    TITLE "0:"
    INDEX 01 00:56:69
  TRACK 54 AUDIO
    TITLE "3:cjc114_0883"
    INDEX 01 00:57:17
  TRACK 55 AUDIO
    TITLE "0:"
    INDEX 01 00:58:32
  TRACK 56 AUDIO
    TITLE "4:cjc114_0884"
    INDEX 01 00:58:56
  TRACK 57 AUDIO
    TITLE "0:"
    INDEX 01 01:01:62
  TRACK 58 AUDIO
    TITLE "2:cjc114_0885"
    INDEX 01 01:02:36
  TRACK 59 AUDIO
    TITLE "0:"
    INDEX 01 01:03:33
  TRACK 60 AUDIO
    TITLE "3:cjc114_0886"
    INDEX 01 01:03:57
  TRACK 61 AUDIO
    TITLE "0:"
    INDEX 01 01:04:68
  TRACK 62 AUDIO
    TITLE "4:cjc114_0887"
    INDEX 01 01:05:17
  TRACK 63 AUDIO
    TITLE "0:"
    INDEX 01 01:08:54
  TRACK 64 AUDIO
    TITLE "2:cjc114_0888"
    INDEX 01 01:09:26
  TRACK 65 AUDIO
    TITLE "0:"
    INDEX 01 01:10:26
  TRACK 66 AUDIO
    TITLE "3:cjc114_0889"
    INDEX 01 01:10:49
  TRACK 67 AUDIO
    TITLE "0:"
    INDEX 01 01:12:01
  TRACK 68 AUDIO
    TITLE "4:cjc114_0890"
    INDEX 01 01:12:26
  TRACK 69 AUDIO
    TITLE "0:"
    INDEX 01 01:15:01
  TRACK 70 AUDIO
    TITLE "2:cjc114_0891"
    INDEX 01 01:15:52
  TRACK 71 AUDIO
    TITLE "0:"
    INDEX 01 01:16:63
  TRACK 72 AUDIO
    TITLE "3:cjc114_0892"
    INDEX 01 01:17:08
  TRACK 73 AUDIO
    TITLE "0:"
    INDEX 01 01:18:33
  TRACK 74 AUDIO
    TITLE "4:cjc114_0893"
    INDEX 01 01:18:58
  TRACK 75 AUDIO
    TITLE "0:"
    INDEX 01 01:23:44
  TRACK 76 AUDIO
    TITLE "2:cjc114_0894"
    INDEX 01 01:24:12
  TRACK 77 AUDIO
    TITLE "0:"
    INDEX 01 01:25:09
  TRACK 78 AUDIO
    TITLE "3:cjc114_0895"
    INDEX 01 01:25:33
  TRACK 79 AUDIO
    TITLE "0:"
    INDEX 01 01:26:64
  TRACK 80 AUDIO
    TITLE "4:cjc114_0896"
    INDEX 01 01:27:14
  TRACK 81 AUDIO
    TITLE "0:"
    INDEX 01 01:29:48
